<?xml version="1.0" encoding="utf-8"?>
<!-- Generator: Adobe Illustrator 28.0.0, SVG Export Plug-In . SVG Version: 6.00 Build 0)  -->
<svg version="1.1" id="Layer_1" xmlns="http://www.w3.org/2000/svg" xmlns:xlink="http://www.w3.org/1999/xlink" x="0px" y="0px"
	 viewBox="0 0 1331 612" style="enable-background:new 0 0 1331 612;" xml:space="preserve">
<style type="text/css">
	.st0{fill:none;stroke:#000000;stroke-width:2;stroke-linecap:round;stroke-linejoin:round;stroke-miterlimit:10;}
</style>
<g>
	<g>
		<path class="st0" d="M467.25,540c10.16,12.14,22.73,21.14,36.76,28.24c1.42,0.72,2.92,1.38,3.7,2.78
			c0.73,1.31,2.05,1.21,3.05,1.41c4.55,0.91,9.15,1.59,13.74,2.29c0.54,0.08,1.23,0.32,1.75-0.22c1.41-1.46,3.23-1.25,5-1.25
			c6.84-0.01,13.71,0.39,20.49-0.56c7.94-1.11,15.28-3.99,22.02-8.43c9.34-6.16,15.94-14.6,20.16-24.8
			c2.41-5.83,3.57-12.09,3.57-18.46c0.01-145.17,0.09-290.33-0.08-435.5c-0.02-20.22-9.56-35.62-26.93-45.96
			c-8.1-4.82-16.98-6.85-26.48-6.83c-64.92,0.09-129.83,0.08-194.75,0c-7.63-0.01-14.88,1.38-21.74,4.57
			c-14.95,6.96-24.73,18.51-29.45,34.24c-1.3,4.33-1.85,8.87-1.85,13.48c0.05,79.58,0.03,159.17,0.03,238.75
			c0,0.58-0.01,1.17,0,1.75c0.02,1.2-0.86,1.77-1.76,1.94c-0.79,0.15-1.64-0.22-2-1.19c-0.54-1.47-0.9-2.98-1.3-4.49
			c-3.62-13.66-7.74-27.15-13.67-40.02c-6.68-14.49-14.79-27.98-26.27-39.24c-9.98-9.78-21.65-16.61-35.25-20
			c-8.14-2.03-16.48-2.19-24.74-1.64c-6.79,0.45-13.49,2.07-20.27,2.79c-2.47,0.26-4.98,0.67-7.49,0.59
			c-3.35-0.11-6.68,0.47-10,0.43c-7-0.08-14.04-0.22-20.99-1.01c-8.62-0.98-17.14-2.7-25.52-5.13
			c-19.65-5.7-37.14-15.36-52.46-28.82c-12.33-10.83-22.54-23.48-30.81-37.7c-4.2-7.22-7.99-14.61-10.73-22.51"/>
		<path class="st0" d="M332.5,480.5c0.92,0.25,1.95,0.31,2.73,0.78c3.52,2.12,7.38,1.98,11.27,1.98c65.33-0.02,130.67-0.04,196,0.02
			c6.53,0.01,12.15-5.39,13.49-10.78c0.55-2.21,0.78-4.45,0.78-6.75c-0.02-120.25-0.03-240.5-0.01-360.75
			c0-9.94-7.54-16.36-16.26-16.34c-65.67,0.16-131.33,0.1-197,0.07c-8.73,0-15.25,6.9-15.25,15.27c-0.01,93.5-0.02,187,0.05,280.5
			c0,3.95-2.41,8.3-6.32,9.43c-3.32,0.96-7.85,0.75-11-3.66c-3.49-4.9-7.16-9.67-10.72-14.52c-0.78-1.07-1.39-2.31-3.01-2.24"/>
		<path class="st0" d="M1314,290.25c-0.4,7.02-1.93,13.88-3.29,20.74c-2.14,10.79-4.85,21.45-7.96,32.01
			c-5.34,18.09-11.88,35.7-19.93,52.78c-7.12,15.09-15.3,29.54-24.85,43.19c-5.68,8.11-12.01,15.72-18.66,23.07
			c-6.92,7.66-14.56,14.48-22.55,20.95c-9.05,7.33-18.87,13.46-29.23,18.79c-10.42,5.37-21.26,9.57-32.53,12.69
			c-7.71,2.14-15.55,3.69-23.49,4.81c-11.62,1.63-23.3,2.28-35,1.91c-8.69-0.28-17.37-0.97-26-2.18
			c-7.63-1.07-15.23-2.35-22.74-4.05c-7.45-1.68-14.81-3.78-22.27-5.43c-10.13-2.25-20.25-4.52-30.48-6.38
			c-10.14-1.84-20.3-3.39-30.52-4.67c-6.73-0.84-13.5-1.2-20.25-1.79c-7.25-0.63-14.51-0.55-21.75-0.39
			c-5.85,0.13-11.68,0.79-17.51,1.33c-7.99,0.74-15.79,2.3-23.48,4.4c-12.07,3.29-23.3,8.42-33,16.47
			c-5.43,4.51-9.98,9.84-13.52,15.98c-0.06,0.1-0.17,0.17-0.25,0.25c-2.63,2.83-3.76,6.14-3.27,10c0.05,0.4,0.22,0.89-0.23,1.25
			c-2.78,2.2-2.52,5.61-2.86,8.51c-0.43,3.7-0.61,7.57,0.8,11.26c0.23,0.61,0.44,1.23,0.83,1.71c0.88,1.08,1.78,1.08,2.47-0.24
			c0.26-0.49,0.63-0.88,0.79-1.49c1.51-5.76,0.85-11.52-0.1-17.25c-0.14-0.82-1.1-1.51-1.69-2.26"/>
		<path class="st0" d="M296.25,368.25c0.02,1.19-0.11,2.39,0.49,3.51c0.33,0.61,0.73,1.22,0.27,2c-1.16,1.96-0.75,4.14-0.75,6.24
			c-0.02,47-0.02,94,0,141c0,9.44,2.67,18.15,7.48,26.26c5.55,9.34,13.36,16.26,23.05,20.92c5.38,2.59,11.14,4.1,17.2,4.68
			c4.85,0.46,9.68,0.37,14.51,0.37c48.25,0.04,96.5,0.02,144.75,0.04c1.77,0,3.46-0.07,4.75-1.51"/>
		<path class="st0" d="M831.75,538.25c-2.07-1.88-2.49-4.59-3.51-7c-6.12-14.49-14.8-27.04-28.01-35.97
			c-9.4-6.35-19.79-9.66-31.23-10.09c-16.69-0.63-31.75,4.53-46.26,12.06c-14.52,7.53-27.51,17.22-39.75,28
			c-10.11,8.9-20.3,17.7-31.49,25.27c-11.98,8.11-24.52,15.17-38.01,20.49c-9.72,3.84-19.71,6.71-30,8.48
			c-11.43,1.96-22.93,2.3-34.5,1.31c-6.26-0.54-12.39-1.64-18.51-3c-1.96-0.44-3.47-1.34-4.74-2.79"/>
		<path class="st0" d="M327.62,453.5c-0.3,6.54-0.18,13.07,1.16,19.49c0.82,3.9,3.05,7.3,4.17,11.2c1.53,5.32,5.56,9.39,9.78,13.08
			c7.51,6.56,16.39,9.82,25.98,12.11c10.19,2.43,20.16,5.81,29.8,10.08c6.83,3.02,13.47,6.41,19.98,10.04
			c1.92,1.07,3.42,2.55,4.51,4.49c4.41,7.83,11.03,12.39,19.98,13.8c9.17,1.44,16.69-1.66,23.26-7.79"/>
		<path class="st0" d="M467.25,538.5c5.3-5.55,6.99-12.21,6.54-19.75c-0.86-14.5-13.96-25.94-28.54-24.94
			c-9.99,0.69-17.77,5.56-22.34,14.52c-1.1,2.16-2.07,4.79-2.41,7.42"/>
		<path class="st0" d="M466.5,538.25c-3.76-3.61-5.86-8.18-7.48-13.01c-1.81-5.39-4.41-10.24-9.27-13.48
			c-4.34-2.89-9.15-3.42-14.25-2.8c-3.46,0.42-6.71,1.53-9.98,2.58c-1.02,0.32-1.99,0.45-3.01,0.46"/>
		<path class="st0" d="M402,52.75c-2.17,1.98-3.12,7.57-1.76,10.01c0.9,1.62,2.3,2.01,4.01,2c7.42-0.03,14.83-0.01,22.25-0.01
			c20.67,0,41.33,0,62,0c4.5,0,5.17-0.75,5.27-5.25c0.14-6.66-0.11-6.8-6.77-6.78c-28.25,0.07-56.5,0.03-84.75,0.03"/>
	</g>
</g>
</svg>
