<?xml version="1.0" encoding="utf-8"?>
<!-- Generator: Adobe Illustrator 28.0.0, SVG Export Plug-In . SVG Version: 6.00 Build 0)  -->
<svg version="1.1" id="Layer_1" xmlns="http://www.w3.org/2000/svg" xmlns:xlink="http://www.w3.org/1999/xlink" x="0px" y="0px"
	 viewBox="0 0 555.44 247.67" style="enable-background:new 0 0 555.44 247.67;" xml:space="preserve">
<style type="text/css">
	.st0{fill:none;stroke:#000000;stroke-width:2;stroke-linecap:round;stroke-linejoin:round;stroke-miterlimit:10;}
</style>
<g>
	<path class="st0" d="M375.17,156.76c1.89-1.17,3.78-0.08,5.47,0.33c10.77,2.65,21.72,3.83,32.74,4.69
		c8.24,0.65,16.47,1.24,24.73,0.94c10.79-0.38,21.45-1.49,31.99-4.14c12.39-3.11,23.5-8.58,32.61-17.4
		c8.15-7.89,14.44-17.18,16.06-28.87c0.8-5.77,0.12-11.34-2.22-16.73c-3.94-9.1-10.5-15.81-18.47-21.51
		c-9.37-6.69-19.64-11.33-30.49-14.98c-9.23-3.11-18.64-5.22-28.24-6.71c-6.13-0.95-12.29-1.66-18.49-1.96
		c-0.33-0.02-0.67,0.23-1,0.36"/>
	<path class="st0" d="M169.35,177.23c2.4-1.74,5.28-1.74,8-1.94c13.14-0.98,26.31-0.69,39.45-0.36c3.14,0.08,4.25-0.97,5.24-3.19
		c1.87-4.2,3.02-8.57,3.03-13.22c0.02-6.08-0.15-12.06-1.95-17.99c-2.34-7.73-5.94-14.73-11.69-20.32
		c-1.87-1.82-2.21-3.04-1.95-5.38c0.71-6.51-1.74-12.16-5.95-16.93c-6.51-7.37-15.19-10.02-24.69-10.51
		c-8.05-0.41-15.92,0.49-23.48,3.47c-2.31,0.91-4.64,1.76-6.49,3.5c-0.66,0.62-1.15,0.69-2.03,0.04c-6.56-4.83-13.81-6.09-21.7-4.05
		c-9.26,2.4-16.63,7.54-22.21,15.25c-1.81,2.5-2.74,5.29-2.82,8.47c-0.09,3.42,2.5,6.42,6.05,7.24c5.67,1.32,10.87-0.21,15.99-2.49
		c7-3.12,11.41-9.01,15.98-14.74c2.55-3.19,5.15-6.32,8.49-8.74"/>
	<path class="st0" d="M450.6,123.06c-0.58-3.33-1.19-6.65-1.74-9.99c-0.85-5.07-2.24-10.01-3.48-14.98
		c-2.91-11.66-7.8-22.5-14.12-32.63c-2.91-4.67-6.52-8.96-10.53-12.9c-1.58-1.55-3.11-3-5.08-2.75c-1.77,0.23-3.52,0.17-5.26,0.36
		c-5.23,0.58-10.49,0.18-15.74,0.66c-9.18,0.85-18.25,2.27-27.21,4.34c-11.36,2.62-22.33,6.45-32.98,11.21
		c-3.64,1.63-7.04,3.73-10.68,5.37c-1.64,0.74-2.77,2.48-2.93,4.87c-0.2,2.87-1.58,5.63-2.07,8.5c-1.19,6.98-1.18,14,0.25,20.95
		c0.56,2.72,1.48,5.39,2.48,7.99c5.11,13.31,14.06,23.39,26.21,30.7c5.45,3.28,11.2,6.01,17.25,7.92c2.99,0.95,6.03,1.37,8.82,3.17
		c1.3,0.84,1.7,2.11,2.84,2.97c9.83,7.39,20.81,12.48,32.28,16.65c13.75,4.99,27.98,8.12,42.47,9.62
		c11.09,1.15,22.26,1.52,33.47,0.72c9.2-0.66,18.37-1.35,27.47-2.85c10.54-1.73,20.97-3.97,31.22-6.99"/>
	<path class="st0" d="M50.71,98.6c-4.44,1.34-7.02,4.93-9.71,8.26c-7.25,8.95-11.62,19.39-14.16,30.46
		c-2.7,11.77-2.23,23.7,3.27,34.61c6.07,12.07,15.9,20.36,28.84,24.8c5.61,1.93,11.4,3.07,17.24,3.13
		c11.89,0.12,22.62-3.49,31.72-11.39c0.61-0.53,0.77-1.23,0.75-2"/>
	<path class="st0" d="M411.88,129.3c1.08-0.92,2.42-1.17,3.75-1.22c4.37-0.17,8.6-1.49,12.99-1.58c0.79-0.02,1.9-0.03,2.45-1.18
		c-3.89-9.99-8.69-19.77-14.67-28.98c-5.22-8.04-11.06-15.4-19.23-20.74c-10.14-6.63-19.31-5.29-27.93,1.61
		c-5.08,4.06-9.25,9.13-12.05,15.15c-3.85,8.25-5.35,16.86-4.55,25.97c0.55,6.24,2.1,12.12,4.81,17.71
		c2.3,4.73,5.05,9.18,8.73,12.98c1.12,1.16,2.27,2.29,2.49,4"/>
	<path class="st0" d="M148.62,95.36c5.02,4.57,8.44,10.15,9.93,16.74c1.28,5.67,1.49,11.3-3.44,15.72
		c-2.36,2.11-5.26,2.94-8.25,2.93c-7.99,0-16-0.63-23.98-0.36c-11.46,0.39-22.68,2.13-33.25,7.1c-5.94,2.79-11.41,6.04-15.2,11.54
		c-2.51,3.65-2.21,8.7,3.44,11.08c3.97,1.67,8,1.47,12.03,1.88c1.5,0.15,3.02-0.2,4.51,0.47c1.06,0.48,2.12-0.26,2.69-0.99
		c3-3.87,7.21-5.88,11.54-7.69c6.89-2.87,14-4.94,21.47-5.79c12.2-1.38,23.85,0,35.27,4.9c9.75,4.18,16.77,10.75,21.43,20.09
		c0.2,0.4,0.34,0.83,0.5,1.25"/>
	<path class="st0" d="M320.72,74.89c-0.96-0.79-1.67,0.19-2.21,0.55c-6.09,4.04-11.59,8.73-16.57,14.13
		c-4.8,5.21-8.53,11.07-11.1,17.56c-2.74,6.92-3.35,14.3-2.29,21.68c1.08,7.54,4.04,14.4,7.88,21.01
		c7.14,12.31,17.46,21.17,29.57,28.12c8.44,4.85,17.57,8.17,26.96,10.76c1.44,0.4,2.89,0.6,3.74,2.02"/>
	<path class="st0" d="M367.17,191.96c-3-0.33-5.99-0.66-8.99-1c-1.82-0.2-3.4,0.81-5.25,0.81c-40.13-0.07-80.26-0.05-120.39-0.06
		c-1.76,0-3.47,0.31-5.06-1.17c-1.22-1.14-2.15,0.62-3.29,1.21c0.21,0.41,0.61,0.83,0.57,1.21c-0.16,1.89,0.75,2.88,2.53,2.7
		c1.76-0.18,2.52-1.41,2.26-3.2c-0.01-0.07,0.15-0.16,0.24-0.25"/>
	<path class="st0" d="M416.13,49.68c-0.23-2.44-2.5-2.86-4.01-3.97c-9.8-7.19-20.97-10.05-32.95-9.97
		c-9.15,0.06-17.91,1.98-26.24,5.93c-8.32,3.94-15.31,9.44-21.28,16.45c-2.75,3.23-4.78,6.87-7.18,10.29c-0.65,0.93-0.47,1.98-0.5,3
		"/>
	<path class="st0" d="M50.96,98.85c0.34,1.03,0.04,1.97-0.19,3.01c-1,4.69-1.49,9.34,0.64,13.99c1.95,4.27,7.41,7.35,12.79,7.26
		c3.19-0.05,5.9-0.68,8.54-2.72c5.52-4.27,5.78-11.38,2.35-15.97c-4.6-6.17-10.72-9.61-18.91-8.13c-1.98,0.36-3.91,0.26-4.98,2.33"
		/>
	<path class="st0" d="M109.16,50.17c0.5,0.42,0.93,0.99,1.51,1.22c5.43,2.18,7.4,6.91,7.86,12.02c0.54,6.08-0.05,12.22-3.88,17.45
		c-3.51,4.8-9.59,4.71-12.95-0.26c-2.33-3.45-3.09-7.38-2.23-11.46c0.57-2.68,0.86-5.38,1.83-8.04c1.34-3.69,3.99-6.5,5.62-9.94"/>
	<path class="st0" d="M230.3,69.15c-1.64,0.53-3.34,0.26-4.99,0.22c-5.59-0.13-12,3.21-12.92,11.27c-0.26,2.31,0.28,4.58,1.6,6.78
		c2.01,3.35,5.79,4.71,9.77,1.63c6-4.66,8.36-11.24,7.45-18.64c-0.71-5.79-3.4-11.02-7.19-15.46c-5.97-7-13.4-11.9-22.45-13.98
		c-6.79-1.56-13.54-1.2-20.23,0.94c-10.13,3.24-18.14,9.34-24.44,17.77c-1.29,1.72-2.19,3.76-2.26,5.97
		c-0.2,6.54,3.43,8.75,9.19,6.88c4.12-1.34,7.47-4.21,10.05-7.86c2.14-3.03,3.84-6.1,3.78-10c-0.04-2.52-0.84-4.7-2.12-6.7
		c-0.54-0.84-1-1.78-1.68-2.54"/>
	<path class="st0" d="M172.6,45.18c-3.22-4.42-8.17-6.05-13.01-7.4c-9.49-2.66-19.15-2.65-28.69-0.05
		c-8.3,2.26-16.07,5.6-21.98,12.2c-0.61,0.68-1.53,1.02-2.24,0.82c-5.34-1.45-10.31,0.23-14.96,2.27c-8.31,3.64-15.56,9-21.75,15.65
		c-6.36,6.82-11.73,14.35-15.52,22.94c-0.71,1.61-1.76,3.1-1.49,5"/>
	<path class="st0" d="M259.27,130.8c-2.38,2.4-4.28,5.3-7.73,6.52c-4,1.42-7.69,0.88-10.97-1.58c-2.85-2.14-3.55-5.25-2.78-8.69
		c0.81-3.62,4.03-5.97,7.74-6.29c6.57-0.56,10.95,2.99,13.57,8.12c2.28,4.48,2.4,9.74,1.7,14.89c-1.05,7.78-3.85,14.81-9.05,20.69
		c-5.79,6.53-13.43,9.31-21.95,10.01c-2.33,0.19-4.66,0.35-6.99,0.5c-0.63,0.04-1.29,0.11-1.75-0.49"/>
	<path class="st0" d="M231.55,69.89c5.08,0.5,9.65,2.51,13.97,5.02c5.86,3.4,10.72,8.1,13.91,14c4.29,7.94,6.64,16.41,4.68,25.67
		c-0.69,3.27-1.28,6.54-2.34,9.72c-0.53,1.59-0.96,3.24-2.5,4.24"/>
	<path class="st0" d="M157.87,178.23c-0.92-0.62-1.98-0.61-3-0.48c-7.12,0.88-14.23,1.77-21.25,3.42
		c-6.76,1.6-13.64,2.73-20.47,4.02c-0.46,0.09-0.99-0.22-1.49-0.35"/>
	<path class="st0" d="M209.44,119.32c-1.55,3.37-2.33,7.06-4.84,10.01c-2.79,3.28-5.35,6.53-10,7.56c-3.55,0.79-6.49-0.11-9.24-1.89
		c-5.18-3.36-8.37-8.15-8.47-14.44c-0.11-7.4,5.09-10.49,12.19-10.96c6.28-0.42,11.7,2.06,16.69,5.53c0.98,0.68,2.04,1.1,3.04,1.69"
		/>
	<path class="st0" d="M471.58,117.57c-1.06-0.14-1.81,0.51-2.22,1.26c-3.8,7.12-9.13,13.17-13.7,19.75
		c-3.57,5.15-7.27,10.19-10.96,15.28c-2.5-0.68-4.16-2.53-6.04-3.9c-8.51-6.19-16.85-12.6-25.28-18.9
		c-1.16-0.87-1.79-2.67-3.74-2.26"/>
	<path class="st0" d="M168.86,177.48c-3.19-0.08-6.34,0.26-9.5,0.72c-1.68,0.25-2.44,1.76-3.96,2.36
		c-7.39,2.89-13.57,7.28-17.3,14.63c-3.03,5.98-3.24,12.4-2.59,18.72c0.68,6.63,3.38,12.76,6.8,18.52c0.41,0.69,0.75,0.25,1.07,0.46
		"/>
	<path class="st0" d="M94.92,163c-0.86,2.39-2.55,4.46-2.96,6.99c-0.51,3.1-0.62,6.24,0.71,9.23c2.12,4.77,6.34,6,10.99,6.49
		c1.58,0.17,3.17-0.24,4.77,0.44c0.99,0.41,2.21-0.55,2.64-1.23c1.88-2.96,3.63-6.06,3.81-9.69c0.25-5.06-2.5-8.22-6.72-10.51
		c-2.91-1.58-6.15-1.73-9.25-2.48c-0.51-0.12-1-0.33-1.5-0.49"/>
	<path class="st0" d="M193.83,183.97c1.29,3.87,4.32,5.96,7.73,7.76c6.49,3.4,13.1,2.55,19.73,0.69c0.93-0.26,1.71-1.03,2.76-0.46"
		/>
	<path class="st0" d="M219.06,175.48c-2.65,4.86-7.26,6.82-12.25,7.93c-4.17,0.93-8.48-0.05-12.73,0.31c-0.08,0.01-0.19,0.04-0.25,0
		c-3.51-2.58-7.9-1.64-11.77-2.9c-3.61-1.18-7.46-1.61-11.21-2.32c-0.61-0.12-1.09-0.33-1.49-0.77"/>
	<path class="st0" d="M469.08,118.82c-1.08-0.73-2.2-0.24-3.24,0.02c-4.43,1.11-8.83,2.31-13.24,3.47
		c-0.57,0.15-1.23-0.28-1.75,0.25"/>
	<path class="st0" d="M188.59,175.23c0.03,1.64,1.18,2.82,1.77,4.24c0.34,0.82,1.25,1.44,0.73,2.5"/>
</g>
</svg>
